<mxfile host="app.diagrams.net" modified="2023-12-11T19:23:12.922Z" agent="Mozilla/5.0 (Macintosh; Intel Mac OS X 10_15_7) AppleWebKit/537.36 (KHTML, like Gecko) Chrome/120.0.0.0 Safari/537.36" etag="wJ9adV-1qoJhsqpX40cY" version="22.1.7" type="device">
  <diagram id="R2lEEEUBdFMjLlhIrx00" name="Page-1">
    <mxGraphModel dx="5560" dy="2050" grid="1" gridSize="10" guides="1" tooltips="1" connect="1" arrows="1" fold="1" page="1" pageScale="1" pageWidth="850" pageHeight="1100" math="0" shadow="0" extFonts="Permanent Marker^https://fonts.googleapis.com/css?family=Permanent+Marker">
      <root>
        <mxCell id="0" />
        <mxCell id="1" parent="0" />
        <mxCell id="eR8TVxgXeTOk0L5o_r-3-2" value="&lt;font style=&quot;font-size: 14px;&quot;&gt;User&lt;/font&gt;" style="rounded=0;whiteSpace=wrap;html=1;fillColor=#dae8fc;strokeColor=#6c8ebf;strokeWidth=2;fontSize=14;fontStyle=0" parent="1" vertex="1">
          <mxGeometry x="360" y="150" width="120" height="60" as="geometry" />
        </mxCell>
        <mxCell id="eR8TVxgXeTOk0L5o_r-3-7" value="&lt;font style=&quot;font-size: 14px;&quot;&gt;Username&lt;/font&gt;" style="ellipse;whiteSpace=wrap;html=1;fillColor=#d5e8d4;strokeColor=#82b366;strokeWidth=2;fontSize=14;fontStyle=0" parent="1" vertex="1">
          <mxGeometry x="170" y="30" width="120" height="80" as="geometry" />
        </mxCell>
        <mxCell id="eR8TVxgXeTOk0L5o_r-3-8" value="&lt;font style=&quot;font-size: 14px;&quot;&gt;UserID&lt;/font&gt;" style="ellipse;whiteSpace=wrap;html=1;fillColor=#d5e8d4;strokeColor=#82b366;strokeWidth=2;fontSize=14;fontStyle=0" parent="1" vertex="1">
          <mxGeometry x="360" y="30" width="120" height="80" as="geometry" />
        </mxCell>
        <mxCell id="eR8TVxgXeTOk0L5o_r-3-9" value="&lt;font style=&quot;font-size: 14px;&quot;&gt;Email&lt;/font&gt;" style="ellipse;whiteSpace=wrap;html=1;fillColor=#d5e8d4;strokeColor=#82b366;strokeWidth=2;fontSize=14;fontStyle=0" parent="1" vertex="1">
          <mxGeometry x="550" y="30" width="120" height="80" as="geometry" />
        </mxCell>
        <mxCell id="eR8TVxgXeTOk0L5o_r-3-10" value="" style="endArrow=none;html=1;rounded=0;exitX=0;exitY=0;exitDx=0;exitDy=0;strokeWidth=2;fontSize=14;fontStyle=0" parent="1" source="eR8TVxgXeTOk0L5o_r-3-2" edge="1">
          <mxGeometry width="50" height="50" relative="1" as="geometry">
            <mxPoint x="180" y="160" as="sourcePoint" />
            <mxPoint x="230" y="110" as="targetPoint" />
          </mxGeometry>
        </mxCell>
        <mxCell id="eR8TVxgXeTOk0L5o_r-3-11" value="" style="endArrow=none;html=1;rounded=0;exitX=0.5;exitY=0;exitDx=0;exitDy=0;strokeWidth=2;fontSize=14;fontStyle=0" parent="1" source="eR8TVxgXeTOk0L5o_r-3-2" edge="1">
          <mxGeometry width="50" height="50" relative="1" as="geometry">
            <mxPoint x="410" y="160" as="sourcePoint" />
            <mxPoint x="420" y="110" as="targetPoint" />
          </mxGeometry>
        </mxCell>
        <mxCell id="eR8TVxgXeTOk0L5o_r-3-12" value="" style="endArrow=none;html=1;rounded=0;exitX=0.5;exitY=1;exitDx=0;exitDy=0;entryX=1;entryY=0;entryDx=0;entryDy=0;strokeWidth=2;fontSize=14;fontStyle=0" parent="1" source="eR8TVxgXeTOk0L5o_r-3-9" target="eR8TVxgXeTOk0L5o_r-3-2" edge="1">
          <mxGeometry width="50" height="50" relative="1" as="geometry">
            <mxPoint x="610" y="225" as="sourcePoint" />
            <mxPoint x="480" y="170" as="targetPoint" />
          </mxGeometry>
        </mxCell>
        <mxCell id="eR8TVxgXeTOk0L5o_r-3-15" value="" style="endArrow=none;html=1;rounded=0;strokeWidth=2;fontSize=14;fontStyle=0" parent="1" edge="1">
          <mxGeometry width="50" height="50" relative="1" as="geometry">
            <mxPoint x="400" y="80" as="sourcePoint" />
            <mxPoint x="440" y="80" as="targetPoint" />
          </mxGeometry>
        </mxCell>
        <mxCell id="eR8TVxgXeTOk0L5o_r-3-18" value="" style="endArrow=none;html=1;rounded=0;exitX=1;exitY=0;exitDx=0;exitDy=0;strokeWidth=2;fontSize=14;fontStyle=0" parent="1" source="eR8TVxgXeTOk0L5o_r-3-19" edge="1">
          <mxGeometry width="50" height="50" relative="1" as="geometry">
            <mxPoint x="350" y="375" as="sourcePoint" />
            <mxPoint x="400" y="325" as="targetPoint" />
          </mxGeometry>
        </mxCell>
        <mxCell id="eR8TVxgXeTOk0L5o_r-3-19" value="&lt;font style=&quot;font-size: 14px;&quot;&gt;Guest&lt;/font&gt;" style="rounded=0;whiteSpace=wrap;html=1;fillColor=#dae8fc;strokeColor=#6c8ebf;strokeWidth=2;fontSize=14;fontStyle=0" parent="1" vertex="1">
          <mxGeometry x="-80" y="392.5" width="120" height="60" as="geometry" />
        </mxCell>
        <mxCell id="eR8TVxgXeTOk0L5o_r-3-27" value="" style="verticalLabelPosition=bottom;verticalAlign=top;html=1;shape=mxgraph.basic.arc;startAngle=0.5771070572251666;endAngle=0.762705336833058;strokeWidth=2;fontSize=14;fontStyle=0" parent="1" vertex="1">
          <mxGeometry x="315" y="272.5" width="80" height="90" as="geometry" />
        </mxCell>
        <mxCell id="eR8TVxgXeTOk0L5o_r-3-32" value="" style="endArrow=none;html=1;rounded=0;exitX=0.5;exitY=0;exitDx=0;exitDy=0;entryX=0.5;entryY=1;entryDx=0;entryDy=0;strokeWidth=2;fontSize=14;fontStyle=0" parent="1" source="eR8TVxgXeTOk0L5o_r-3-19" target="Yw1Rvifl_4rnwtDzFo2M-11" edge="1">
          <mxGeometry width="50" height="50" relative="1" as="geometry">
            <mxPoint x="-220" y="392.5" as="sourcePoint" />
            <mxPoint x="-180.00000000000023" y="352.5" as="targetPoint" />
          </mxGeometry>
        </mxCell>
        <mxCell id="eR8TVxgXeTOk0L5o_r-3-36" value="&lt;font style=&quot;font-size: 14px;&quot;&gt;Host&lt;/font&gt;" style="rounded=0;whiteSpace=wrap;html=1;fillColor=#dae8fc;strokeColor=#6c8ebf;strokeWidth=2;fontSize=14;fontStyle=0" parent="1" vertex="1">
          <mxGeometry x="865" y="392.5" width="120" height="60" as="geometry" />
        </mxCell>
        <mxCell id="eR8TVxgXeTOk0L5o_r-3-37" value="" style="endArrow=none;html=1;rounded=0;exitX=0;exitY=0;exitDx=0;exitDy=0;strokeWidth=2;fontSize=14;fontStyle=0" parent="1" source="eR8TVxgXeTOk0L5o_r-3-17" edge="1">
          <mxGeometry width="50" height="50" relative="1" as="geometry">
            <mxPoint x="375" y="462.5" as="sourcePoint" />
            <mxPoint x="410" y="327.5" as="targetPoint" />
            <Array as="points" />
          </mxGeometry>
        </mxCell>
        <mxCell id="eR8TVxgXeTOk0L5o_r-3-39" value="" style="verticalLabelPosition=bottom;verticalAlign=top;html=1;shape=mxgraph.basic.arc;startAngle=0.24475503331460854;endAngle=0.42780768448935275;strokeWidth=2;fontSize=14;fontStyle=0" parent="1" vertex="1">
          <mxGeometry x="460" y="266.25" width="70" height="97.5" as="geometry" />
        </mxCell>
        <mxCell id="eR8TVxgXeTOk0L5o_r-3-52" value="" style="endArrow=ERmandOne;html=1;rounded=0;endFill=0;entryX=0.5;entryY=1;entryDx=0;entryDy=0;strokeWidth=2;fontSize=14;fontStyle=0" parent="1" source="Yw1Rvifl_4rnwtDzFo2M-55" target="eR8TVxgXeTOk0L5o_r-3-19" edge="1">
          <mxGeometry width="50" height="50" relative="1" as="geometry">
            <mxPoint x="-20" y="562.5" as="sourcePoint" />
            <mxPoint x="-20" y="460" as="targetPoint" />
          </mxGeometry>
        </mxCell>
        <mxCell id="eR8TVxgXeTOk0L5o_r-3-107" value="" style="endArrow=ERmandOne;html=1;rounded=0;exitX=0.5;exitY=0;exitDx=0;exitDy=0;endFill=0;strokeWidth=2;fontSize=14;fontStyle=0;entryX=0.5;entryY=1;entryDx=0;entryDy=0;" parent="1" source="Yw1Rvifl_4rnwtDzFo2M-17" target="eR8TVxgXeTOk0L5o_r-3-36" edge="1">
          <mxGeometry width="50" height="50" relative="1" as="geometry">
            <mxPoint x="925" y="572.5" as="sourcePoint" />
            <mxPoint x="945" y="450" as="targetPoint" />
          </mxGeometry>
        </mxCell>
        <mxCell id="eR8TVxgXeTOk0L5o_r-3-17" value="&lt;font style=&quot;font-size: 14px;&quot;&gt;d&lt;/font&gt;" style="ellipse;whiteSpace=wrap;html=1;aspect=fixed;fillColor=#f8cecc;strokeColor=#b85450;strokeWidth=2;fontSize=14;fontStyle=0" parent="1" vertex="1">
          <mxGeometry x="395" y="290" width="50" height="50" as="geometry" />
        </mxCell>
        <mxCell id="MQzUX687LwjazqS2eihC-2" value="" style="endArrow=none;html=1;rounded=0;exitX=0;exitY=0;exitDx=0;exitDy=0;entryX=0.955;entryY=0.693;entryDx=0;entryDy=0;entryPerimeter=0;strokeWidth=2;fontSize=14;fontStyle=0" parent="1" source="eR8TVxgXeTOk0L5o_r-3-36" target="eR8TVxgXeTOk0L5o_r-3-17" edge="1">
          <mxGeometry width="50" height="50" relative="1" as="geometry">
            <mxPoint x="400" y="380" as="sourcePoint" />
            <mxPoint x="450" y="330" as="targetPoint" />
          </mxGeometry>
        </mxCell>
        <mxCell id="Yw1Rvifl_4rnwtDzFo2M-5" value="" style="endArrow=none;html=1;rounded=0;exitX=0.5;exitY=0;exitDx=0;exitDy=0;strokeWidth=2;fontSize=14;fontStyle=0" parent="1" edge="1">
          <mxGeometry width="50" height="50" relative="1" as="geometry">
            <mxPoint x="419.55" y="210" as="sourcePoint" />
            <mxPoint x="419.55" y="290" as="targetPoint" />
          </mxGeometry>
        </mxCell>
        <mxCell id="Yw1Rvifl_4rnwtDzFo2M-6" value="&lt;font style=&quot;font-size: 14px;&quot;&gt;Status&lt;/font&gt;" style="ellipse;whiteSpace=wrap;html=1;fillColor=#d5e8d4;strokeColor=#82b366;strokeWidth=2;fontSize=14;fontStyle=0" parent="1" vertex="1">
          <mxGeometry x="610" y="140" width="120" height="80" as="geometry" />
        </mxCell>
        <mxCell id="Yw1Rvifl_4rnwtDzFo2M-8" value="" style="endArrow=none;html=1;rounded=0;exitX=0;exitY=0.5;exitDx=0;exitDy=0;entryX=1;entryY=0;entryDx=0;entryDy=0;strokeWidth=2;fontSize=14;fontStyle=0" parent="1" source="Yw1Rvifl_4rnwtDzFo2M-6" edge="1">
          <mxGeometry width="50" height="50" relative="1" as="geometry">
            <mxPoint x="610" y="140" as="sourcePoint" />
            <mxPoint x="480" y="180" as="targetPoint" />
          </mxGeometry>
        </mxCell>
        <mxCell id="Yw1Rvifl_4rnwtDzFo2M-9" value="" style="endArrow=none;html=1;rounded=0;exitX=0;exitY=0.5;exitDx=0;exitDy=0;entryX=1;entryY=0.5;entryDx=0;entryDy=0;strokeWidth=2;fontSize=14;fontStyle=0" parent="1" source="eR8TVxgXeTOk0L5o_r-3-2" target="Yw1Rvifl_4rnwtDzFo2M-14" edge="1">
          <mxGeometry width="50" height="50" relative="1" as="geometry">
            <mxPoint x="300" y="179.55" as="sourcePoint" />
            <mxPoint x="200" y="180" as="targetPoint" />
          </mxGeometry>
        </mxCell>
        <mxCell id="Yw1Rvifl_4rnwtDzFo2M-116" value="" style="rounded=0;orthogonalLoop=1;jettySize=auto;html=1;endArrow=none;endFill=0;strokeWidth=2;fontSize=14;fontStyle=0" parent="1" source="Yw1Rvifl_4rnwtDzFo2M-10" target="eR8TVxgXeTOk0L5o_r-3-36" edge="1">
          <mxGeometry relative="1" as="geometry" />
        </mxCell>
        <mxCell id="Yw1Rvifl_4rnwtDzFo2M-10" value="&lt;font style=&quot;font-size: 14px;&quot;&gt;SuperHostStatus&lt;/font&gt;" style="ellipse;whiteSpace=wrap;html=1;fontSize=14;fillColor=#d5e8d4;strokeColor=#82b366;strokeWidth=2;fontStyle=0" parent="1" vertex="1">
          <mxGeometry x="1090" y="382.5" width="120" height="80" as="geometry" />
        </mxCell>
        <mxCell id="Yw1Rvifl_4rnwtDzFo2M-11" value="&lt;font style=&quot;font-size: 14px;&quot;&gt;LoyaltyPoints&lt;/font&gt;" style="ellipse;whiteSpace=wrap;html=1;fillColor=#d5e8d4;strokeColor=#82b366;strokeWidth=2;fontSize=14;fontStyle=0" parent="1" vertex="1">
          <mxGeometry x="-80" y="240" width="120" height="80" as="geometry" />
        </mxCell>
        <mxCell id="Yw1Rvifl_4rnwtDzFo2M-14" value="PhoneNumbers" style="ellipse;shape=doubleEllipse;margin=3;whiteSpace=wrap;html=1;align=center;fillColor=#d5e8d4;strokeColor=#82b366;strokeWidth=2;fontSize=14;fontStyle=0" parent="1" vertex="1">
          <mxGeometry x="60" y="140" width="130" height="80" as="geometry" />
        </mxCell>
        <mxCell id="Yw1Rvifl_4rnwtDzFo2M-17" value="Have&amp;nbsp;" style="shape=rhombus;perimeter=rhombusPerimeter;whiteSpace=wrap;html=1;align=center;fillColor=#fff2cc;strokeColor=#d6b656;strokeWidth=2;fontSize=14;fontStyle=0" parent="1" vertex="1">
          <mxGeometry x="865" y="720" width="120" height="90" as="geometry" />
        </mxCell>
        <mxCell id="Yw1Rvifl_4rnwtDzFo2M-18" value="" style="endArrow=none;html=1;rounded=0;startArrow=ERoneToMany;startFill=0;strokeWidth=2;fontSize=14;fontStyle=0;entryX=0.5;entryY=1;entryDx=0;entryDy=0;exitX=0.5;exitY=0;exitDx=0;exitDy=0;" parent="1" source="Yw1Rvifl_4rnwtDzFo2M-19" target="Yw1Rvifl_4rnwtDzFo2M-17" edge="1">
          <mxGeometry width="50" height="50" relative="1" as="geometry">
            <mxPoint x="944.74" y="1100" as="sourcePoint" />
            <mxPoint x="944.74" y="980" as="targetPoint" />
          </mxGeometry>
        </mxCell>
        <mxCell id="Yw1Rvifl_4rnwtDzFo2M-35" style="rounded=0;orthogonalLoop=1;jettySize=auto;html=1;exitX=0;exitY=1;exitDx=0;exitDy=0;strokeWidth=2;endArrow=none;endFill=0;fontSize=14;fontStyle=0;entryX=0.592;entryY=0.013;entryDx=0;entryDy=0;entryPerimeter=0;" parent="1" source="Yw1Rvifl_4rnwtDzFo2M-19" target="Yw1Rvifl_4rnwtDzFo2M-31" edge="1">
          <mxGeometry relative="1" as="geometry" />
        </mxCell>
        <mxCell id="Yw1Rvifl_4rnwtDzFo2M-19" value="&lt;font style=&quot;font-size: 14px;&quot;&gt;Property&lt;/font&gt;" style="rounded=0;whiteSpace=wrap;html=1;fillColor=#dae8fc;strokeColor=#6c8ebf;strokeWidth=2;fontSize=14;fontStyle=0" parent="1" vertex="1">
          <mxGeometry x="865" y="1100" width="120" height="60" as="geometry" />
        </mxCell>
        <mxCell id="Yw1Rvifl_4rnwtDzFo2M-43" style="rounded=0;orthogonalLoop=1;jettySize=auto;html=1;entryX=0;entryY=0.5;entryDx=0;entryDy=0;endArrow=none;endFill=0;strokeWidth=2;exitX=1;exitY=0.5;exitDx=0;exitDy=0;fontSize=14;fontStyle=0" parent="1" source="Yw1Rvifl_4rnwtDzFo2M-19" target="Yw1Rvifl_4rnwtDzFo2M-32" edge="1">
          <mxGeometry relative="1" as="geometry">
            <mxPoint x="950.58" y="1160" as="sourcePoint" />
            <mxPoint x="939.4200000000002" y="1343.44" as="targetPoint" />
          </mxGeometry>
        </mxCell>
        <mxCell id="Yw1Rvifl_4rnwtDzFo2M-31" value="&lt;font style=&quot;font-size: 14px;&quot;&gt;PropertyID&lt;/font&gt;" style="ellipse;whiteSpace=wrap;html=1;fontSize=14;fontStyle=4;fillColor=#d5e8d4;strokeColor=#82b366;strokeWidth=2;" parent="1" vertex="1">
          <mxGeometry x="660" y="1230" width="120" height="80" as="geometry" />
        </mxCell>
        <mxCell id="Yw1Rvifl_4rnwtDzFo2M-47" style="rounded=0;orthogonalLoop=1;jettySize=auto;html=1;exitX=0.5;exitY=1;exitDx=0;exitDy=0;entryX=0;entryY=0.5;entryDx=0;entryDy=0;endArrow=none;endFill=0;strokeWidth=2;fontSize=14;fontStyle=0;" parent="1" source="Yw1Rvifl_4rnwtDzFo2M-32" target="Yw1Rvifl_4rnwtDzFo2M-33" edge="1">
          <mxGeometry relative="1" as="geometry" />
        </mxCell>
        <mxCell id="Yw1Rvifl_4rnwtDzFo2M-48" style="rounded=0;orthogonalLoop=1;jettySize=auto;html=1;exitX=0.5;exitY=0;exitDx=0;exitDy=0;entryX=0;entryY=0.5;entryDx=0;entryDy=0;endArrow=none;endFill=0;strokeWidth=2;fontSize=14;fontStyle=0" parent="1" source="Yw1Rvifl_4rnwtDzFo2M-32" target="Yw1Rvifl_4rnwtDzFo2M-34" edge="1">
          <mxGeometry relative="1" as="geometry" />
        </mxCell>
        <mxCell id="Yw1Rvifl_4rnwtDzFo2M-32" value="&lt;font style=&quot;font-size: 14px;&quot;&gt;Address&lt;/font&gt;" style="ellipse;whiteSpace=wrap;html=1;fontSize=14;fillColor=#d5e8d4;strokeColor=#82b366;strokeWidth=2;fontStyle=0" parent="1" vertex="1">
          <mxGeometry x="1300" y="1092.5" width="120" height="80" as="geometry" />
        </mxCell>
        <mxCell id="Yw1Rvifl_4rnwtDzFo2M-33" value="&lt;font style=&quot;font-size: 14px;&quot;&gt;Street&lt;/font&gt;" style="ellipse;whiteSpace=wrap;html=1;fontSize=14;fillColor=#d5e8d4;strokeColor=#82b366;strokeWidth=2;fontStyle=0" parent="1" vertex="1">
          <mxGeometry x="1500" y="1240" width="120" height="80" as="geometry" />
        </mxCell>
        <mxCell id="Yw1Rvifl_4rnwtDzFo2M-34" value="&lt;font style=&quot;font-size: 14px;&quot;&gt;City&lt;/font&gt;" style="ellipse;whiteSpace=wrap;html=1;fontSize=14;fillColor=#d5e8d4;strokeColor=#82b366;strokeWidth=2;fontStyle=0" parent="1" vertex="1">
          <mxGeometry x="1490" y="940" width="120" height="80" as="geometry" />
        </mxCell>
        <mxCell id="Yw1Rvifl_4rnwtDzFo2M-40" value="&lt;font style=&quot;font-size: 14px;&quot;&gt;ZIP&lt;br style=&quot;font-size: 14px;&quot;&gt;&lt;/font&gt;" style="ellipse;whiteSpace=wrap;html=1;fontSize=14;fillColor=#d5e8d4;strokeColor=#82b366;strokeWidth=2;fontStyle=0" parent="1" vertex="1">
          <mxGeometry x="1580" y="1092.5" width="120" height="80" as="geometry" />
        </mxCell>
        <mxCell id="Yw1Rvifl_4rnwtDzFo2M-46" style="rounded=0;orthogonalLoop=1;jettySize=auto;html=1;exitX=1;exitY=0.5;exitDx=0;exitDy=0;entryX=0;entryY=0.5;entryDx=0;entryDy=0;endArrow=none;endFill=0;strokeWidth=2;fontSize=14;fontStyle=0" parent="1" source="Yw1Rvifl_4rnwtDzFo2M-32" target="Yw1Rvifl_4rnwtDzFo2M-40" edge="1">
          <mxGeometry relative="1" as="geometry" />
        </mxCell>
        <mxCell id="Yw1Rvifl_4rnwtDzFo2M-49" style="rounded=0;orthogonalLoop=1;jettySize=auto;html=1;exitX=1;exitY=1;exitDx=0;exitDy=0;strokeWidth=2;endArrow=none;endFill=0;entryX=0.417;entryY=0;entryDx=0;entryDy=0;fontSize=14;fontStyle=0;entryPerimeter=0;" parent="1" source="Yw1Rvifl_4rnwtDzFo2M-19" target="Yw1Rvifl_4rnwtDzFo2M-50" edge="1">
          <mxGeometry relative="1" as="geometry">
            <mxPoint x="1005" y="1161.08" as="sourcePoint" />
            <mxPoint x="1140.7985327571432" y="1203.9244897258845" as="targetPoint" />
          </mxGeometry>
        </mxCell>
        <mxCell id="Yw1Rvifl_4rnwtDzFo2M-50" value="&lt;font style=&quot;font-size: 14px;&quot;&gt;PricePerNight&lt;/font&gt;" style="ellipse;whiteSpace=wrap;html=1;fontSize=14;fillColor=#d5e8d4;strokeColor=#82b366;strokeWidth=2;fontStyle=0" parent="1" vertex="1">
          <mxGeometry x="1120" y="1240" width="120" height="80" as="geometry" />
        </mxCell>
        <mxCell id="Yw1Rvifl_4rnwtDzFo2M-51" style="rounded=0;orthogonalLoop=1;jettySize=auto;html=1;exitX=0;exitY=0;exitDx=0;exitDy=0;strokeWidth=2;endArrow=none;endFill=0;fontSize=14;fontStyle=0" parent="1" source="Yw1Rvifl_4rnwtDzFo2M-19" target="Yw1Rvifl_4rnwtDzFo2M-52" edge="1">
          <mxGeometry relative="1" as="geometry">
            <mxPoint x="677.5" y="1260" as="sourcePoint" />
          </mxGeometry>
        </mxCell>
        <mxCell id="Yw1Rvifl_4rnwtDzFo2M-52" value="&lt;font style=&quot;font-size: 14px;&quot;&gt;RoomType&lt;/font&gt;" style="ellipse;whiteSpace=wrap;html=1;fontSize=14;fillColor=#d5e8d4;strokeColor=#82b366;strokeWidth=2;fontStyle=0" parent="1" vertex="1">
          <mxGeometry x="660" y="997.5" width="120" height="80" as="geometry" />
        </mxCell>
        <mxCell id="Yw1Rvifl_4rnwtDzFo2M-53" style="rounded=0;orthogonalLoop=1;jettySize=auto;html=1;exitX=1;exitY=0;exitDx=0;exitDy=0;strokeWidth=2;endArrow=none;endFill=0;fontSize=14;fontStyle=0" parent="1" source="Yw1Rvifl_4rnwtDzFo2M-19" target="Yw1Rvifl_4rnwtDzFo2M-54" edge="1">
          <mxGeometry relative="1" as="geometry">
            <mxPoint x="1015" y="1040" as="sourcePoint" />
          </mxGeometry>
        </mxCell>
        <mxCell id="Yw1Rvifl_4rnwtDzFo2M-54" value="&lt;font style=&quot;font-size: 14px;&quot;&gt;Rating&lt;/font&gt;" style="ellipse;whiteSpace=wrap;html=1;fontSize=14;fillColor=#d5e8d4;strokeColor=#82b366;strokeWidth=2;fontStyle=0" parent="1" vertex="1">
          <mxGeometry x="1090" y="997.5" width="120" height="80" as="geometry" />
        </mxCell>
        <mxCell id="Yw1Rvifl_4rnwtDzFo2M-55" value="Book" style="shape=rhombus;perimeter=rhombusPerimeter;whiteSpace=wrap;html=1;align=center;fillColor=#fff2cc;strokeColor=#d6b656;strokeWidth=2;fontSize=14;fontStyle=0" parent="1" vertex="1">
          <mxGeometry x="-80" y="720" width="120" height="90" as="geometry" />
        </mxCell>
        <mxCell id="Yw1Rvifl_4rnwtDzFo2M-56" value="&lt;font style=&quot;font-size: 14px;&quot;&gt;Reservation&lt;/font&gt;" style="rounded=0;whiteSpace=wrap;html=1;fillColor=#dae8fc;strokeColor=#6c8ebf;strokeWidth=2;fontSize=14;fontStyle=0" parent="1" vertex="1">
          <mxGeometry x="-80" y="1100" width="130" height="60" as="geometry" />
        </mxCell>
        <mxCell id="Yw1Rvifl_4rnwtDzFo2M-57" value="" style="endArrow=none;html=1;rounded=0;startArrow=ERoneToMany;startFill=0;strokeWidth=2;fontSize=14;fontStyle=0" parent="1" target="Yw1Rvifl_4rnwtDzFo2M-55" edge="1">
          <mxGeometry width="50" height="50" relative="1" as="geometry">
            <mxPoint x="-20" y="1100" as="sourcePoint" />
            <mxPoint x="-20" y="1020" as="targetPoint" />
          </mxGeometry>
        </mxCell>
        <mxCell id="Yw1Rvifl_4rnwtDzFo2M-58" style="rounded=0;orthogonalLoop=1;jettySize=auto;html=1;exitX=1;exitY=1;exitDx=0;exitDy=0;strokeWidth=2;endArrow=none;endFill=0;fontSize=14;fontStyle=0" parent="1" source="Yw1Rvifl_4rnwtDzFo2M-56" target="Yw1Rvifl_4rnwtDzFo2M-59" edge="1">
          <mxGeometry relative="1" as="geometry">
            <mxPoint x="-270" y="1210" as="sourcePoint" />
          </mxGeometry>
        </mxCell>
        <mxCell id="Yw1Rvifl_4rnwtDzFo2M-59" value="&lt;font style=&quot;font-size: 14px;&quot;&gt;ReservationID&lt;/font&gt;" style="ellipse;whiteSpace=wrap;html=1;fontSize=14;fontStyle=4;fillColor=#d5e8d4;strokeColor=#82b366;strokeWidth=2;" parent="1" vertex="1">
          <mxGeometry x="180" y="1190" width="120" height="80" as="geometry" />
        </mxCell>
        <mxCell id="Yw1Rvifl_4rnwtDzFo2M-60" style="rounded=0;orthogonalLoop=1;jettySize=auto;html=1;strokeWidth=2;endArrow=none;endFill=0;entryX=0.565;entryY=-0.011;entryDx=0;entryDy=0;entryPerimeter=0;fontSize=14;fontStyle=0;exitX=0.25;exitY=1;exitDx=0;exitDy=0;" parent="1" source="Yw1Rvifl_4rnwtDzFo2M-56" target="Yw1Rvifl_4rnwtDzFo2M-61" edge="1">
          <mxGeometry relative="1" as="geometry">
            <mxPoint x="-40" y="1160" as="sourcePoint" />
            <mxPoint x="-90.64224559156355" y="1327.9894813866026" as="targetPoint" />
          </mxGeometry>
        </mxCell>
        <mxCell id="Yw1Rvifl_4rnwtDzFo2M-61" value="&lt;font style=&quot;font-size: 14px;&quot;&gt;StartDate&lt;/font&gt;" style="ellipse;whiteSpace=wrap;html=1;fontSize=14;fillColor=#d5e8d4;strokeColor=#82b366;strokeWidth=2;fontStyle=0" parent="1" vertex="1">
          <mxGeometry x="-250" y="1270" width="120" height="80" as="geometry" />
        </mxCell>
        <mxCell id="Yw1Rvifl_4rnwtDzFo2M-62" style="rounded=0;orthogonalLoop=1;jettySize=auto;html=1;strokeWidth=2;endArrow=none;endFill=0;fontSize=14;fontStyle=0;entryX=0.5;entryY=0;entryDx=0;entryDy=0;" parent="1" target="Yw1Rvifl_4rnwtDzFo2M-63" edge="1">
          <mxGeometry relative="1" as="geometry">
            <mxPoint x="-30" y="1160" as="sourcePoint" />
          </mxGeometry>
        </mxCell>
        <mxCell id="Yw1Rvifl_4rnwtDzFo2M-63" value="&lt;font style=&quot;font-size: 14px;&quot;&gt;TotalPrice&lt;/font&gt;" style="ellipse;whiteSpace=wrap;html=1;fontSize=14;fillColor=#d5e8d4;strokeColor=#82b366;strokeWidth=2;fontStyle=0" parent="1" vertex="1">
          <mxGeometry x="-160" y="1350" width="120" height="80" as="geometry" />
        </mxCell>
        <mxCell id="Yw1Rvifl_4rnwtDzFo2M-64" style="rounded=0;orthogonalLoop=1;jettySize=auto;html=1;exitX=0;exitY=1;exitDx=0;exitDy=0;strokeWidth=2;endArrow=none;endFill=0;fontSize=14;fontStyle=0" parent="1" source="Yw1Rvifl_4rnwtDzFo2M-56" target="Yw1Rvifl_4rnwtDzFo2M-65" edge="1">
          <mxGeometry relative="1" as="geometry">
            <mxPoint x="-392" y="920" as="sourcePoint" />
          </mxGeometry>
        </mxCell>
        <mxCell id="Yw1Rvifl_4rnwtDzFo2M-65" value="&lt;font style=&quot;font-size: 14px;&quot;&gt;EndDate&lt;/font&gt;" style="ellipse;whiteSpace=wrap;html=1;fontSize=14;fillColor=#d5e8d4;strokeColor=#82b366;strokeWidth=2;fontStyle=0" parent="1" vertex="1">
          <mxGeometry x="-340" y="1190" width="120" height="80" as="geometry" />
        </mxCell>
        <mxCell id="Yw1Rvifl_4rnwtDzFo2M-67" style="rounded=0;orthogonalLoop=1;jettySize=auto;html=1;strokeWidth=2;endArrow=none;endFill=0;fontSize=14;fontStyle=0;entryX=0.5;entryY=0;entryDx=0;entryDy=0;" parent="1" target="Yw1Rvifl_4rnwtDzFo2M-68" edge="1">
          <mxGeometry relative="1" as="geometry">
            <mxPoint x="-10" y="1160" as="sourcePoint" />
          </mxGeometry>
        </mxCell>
        <mxCell id="Yw1Rvifl_4rnwtDzFo2M-68" value="&lt;font style=&quot;font-size: 14px;&quot;&gt;DateofBooking&lt;/font&gt;" style="ellipse;whiteSpace=wrap;html=1;fontSize=14;fillColor=#d5e8d4;strokeColor=#82b366;strokeWidth=2;fontStyle=0" parent="1" vertex="1">
          <mxGeometry x="-10" y="1350" width="120" height="80" as="geometry" />
        </mxCell>
        <mxCell id="Yw1Rvifl_4rnwtDzFo2M-81" value="Makes" style="shape=rhombus;perimeter=rhombusPerimeter;whiteSpace=wrap;html=1;align=center;fillColor=#fff2cc;strokeColor=#d6b656;strokeWidth=2;fontSize=14;fontStyle=0" parent="1" vertex="1">
          <mxGeometry x="-650" y="383.25" width="120" height="90" as="geometry" />
        </mxCell>
        <mxCell id="Yw1Rvifl_4rnwtDzFo2M-82" style="rounded=0;orthogonalLoop=1;jettySize=auto;html=1;exitX=0;exitY=0.5;exitDx=0;exitDy=0;strokeWidth=2;endArrow=none;endFill=0;startArrow=ERmandOne;startFill=0;entryX=1;entryY=0.5;entryDx=0;entryDy=0;fontSize=14;fontStyle=0" parent="1" target="Yw1Rvifl_4rnwtDzFo2M-81" edge="1">
          <mxGeometry relative="1" as="geometry">
            <mxPoint x="-80" y="428.25" as="sourcePoint" />
            <mxPoint x="-530" y="425.75" as="targetPoint" />
          </mxGeometry>
        </mxCell>
        <mxCell id="Yw1Rvifl_4rnwtDzFo2M-84" value="&lt;font style=&quot;font-size: 14px;&quot;&gt;Payments&lt;/font&gt;" style="rounded=0;whiteSpace=wrap;html=1;fillColor=#dae8fc;strokeColor=#6c8ebf;strokeWidth=2;fontSize=14;fontStyle=0" parent="1" vertex="1">
          <mxGeometry x="-650" y="1102.5" width="120" height="60" as="geometry" />
        </mxCell>
        <mxCell id="Yw1Rvifl_4rnwtDzFo2M-85" value="" style="endArrow=none;html=1;rounded=0;entryX=0.5;entryY=1;entryDx=0;entryDy=0;exitX=0.5;exitY=0;exitDx=0;exitDy=0;startArrow=ERzeroToMany;startFill=0;strokeWidth=2;fontSize=14;fontStyle=0" parent="1" source="Yw1Rvifl_4rnwtDzFo2M-84" target="Yw1Rvifl_4rnwtDzFo2M-81" edge="1">
          <mxGeometry width="50" height="50" relative="1" as="geometry">
            <mxPoint x="-770" y="428.25" as="sourcePoint" />
            <mxPoint x="-920" y="256.75" as="targetPoint" />
          </mxGeometry>
        </mxCell>
        <mxCell id="Yw1Rvifl_4rnwtDzFo2M-86" style="rounded=0;orthogonalLoop=1;jettySize=auto;html=1;exitX=0.5;exitY=1;exitDx=0;exitDy=0;strokeWidth=2;endArrow=none;endFill=0;fontSize=14;fontStyle=0" parent="1" source="Yw1Rvifl_4rnwtDzFo2M-84" target="Yw1Rvifl_4rnwtDzFo2M-87" edge="1">
          <mxGeometry relative="1" as="geometry">
            <mxPoint x="-610" y="1242.5" as="sourcePoint" />
          </mxGeometry>
        </mxCell>
        <mxCell id="Yw1Rvifl_4rnwtDzFo2M-87" value="&lt;font style=&quot;font-size: 14px;&quot;&gt;PaymentID&lt;/font&gt;" style="ellipse;whiteSpace=wrap;html=1;fontSize=14;fontStyle=4;fillColor=#d5e8d4;strokeColor=#82b366;strokeWidth=2;" parent="1" vertex="1">
          <mxGeometry x="-650" y="1260" width="120" height="80" as="geometry" />
        </mxCell>
        <mxCell id="Yw1Rvifl_4rnwtDzFo2M-88" style="rounded=0;orthogonalLoop=1;jettySize=auto;html=1;strokeWidth=2;endArrow=none;endFill=0;fontSize=14;fontStyle=0;exitX=0;exitY=0.5;exitDx=0;exitDy=0;" parent="1" source="Yw1Rvifl_4rnwtDzFo2M-84" target="Yw1Rvifl_4rnwtDzFo2M-89" edge="1">
          <mxGeometry relative="1" as="geometry">
            <mxPoint x="-650" y="1080" as="sourcePoint" />
          </mxGeometry>
        </mxCell>
        <mxCell id="Yw1Rvifl_4rnwtDzFo2M-89" value="&lt;font style=&quot;font-size: 14px;&quot;&gt;PaymentDate&lt;/font&gt;" style="ellipse;whiteSpace=wrap;html=1;fontSize=14;fontStyle=0;fillColor=#d5e8d4;strokeColor=#82b366;strokeWidth=2;" parent="1" vertex="1">
          <mxGeometry x="-900" y="1092.5" width="120" height="80" as="geometry" />
        </mxCell>
        <mxCell id="Yw1Rvifl_4rnwtDzFo2M-101" style="rounded=0;orthogonalLoop=1;jettySize=auto;html=1;endArrow=none;endFill=0;strokeWidth=2;startArrow=ERmandOne;startFill=0;fontSize=14;fontStyle=0;exitX=0.5;exitY=1;exitDx=0;exitDy=0;entryX=0.5;entryY=0;entryDx=0;entryDy=0;" parent="1" source="Yw1Rvifl_4rnwtDzFo2M-19" target="Yw1Rvifl_4rnwtDzFo2M-105" edge="1">
          <mxGeometry relative="1" as="geometry">
            <mxPoint x="944.33" y="1160" as="sourcePoint" />
            <mxPoint x="944.33" y="1370" as="targetPoint" />
          </mxGeometry>
        </mxCell>
        <mxCell id="Yw1Rvifl_4rnwtDzFo2M-104" value="" style="rounded=0;orthogonalLoop=1;jettySize=auto;html=1;endArrow=none;endFill=0;entryX=0.5;entryY=1;entryDx=0;entryDy=0;startArrow=ERoneToMany;startFill=0;strokeWidth=2;fontSize=14;fontStyle=0;exitX=0.5;exitY=0;exitDx=0;exitDy=0;" parent="1" source="Yw1Rvifl_4rnwtDzFo2M-106" target="Yw1Rvifl_4rnwtDzFo2M-105" edge="1">
          <mxGeometry relative="1" as="geometry">
            <mxPoint x="945" y="1610" as="sourcePoint" />
            <mxPoint x="443.48739495798327" y="1808.8655462184875" as="targetPoint" />
          </mxGeometry>
        </mxCell>
        <mxCell id="Yw1Rvifl_4rnwtDzFo2M-105" value="Have" style="shape=rhombus;double=1;perimeter=rhombusPerimeter;whiteSpace=wrap;html=1;align=center;fillColor=#fff2cc;strokeColor=#d6b656;strokeWidth=2;fontSize=14;fontStyle=0" parent="1" vertex="1">
          <mxGeometry x="865" y="1350" width="120" height="100" as="geometry" />
        </mxCell>
        <mxCell id="Yw1Rvifl_4rnwtDzFo2M-106" value="Media" style="shape=ext;margin=3;double=1;whiteSpace=wrap;html=1;align=center;fillColor=#dae8fc;strokeColor=#6c8ebf;strokeWidth=2;fontSize=14;fontStyle=0" parent="1" vertex="1">
          <mxGeometry x="850" y="1580" width="150" height="80" as="geometry" />
        </mxCell>
        <mxCell id="Yw1Rvifl_4rnwtDzFo2M-109" style="rounded=0;orthogonalLoop=1;jettySize=auto;html=1;exitX=1;exitY=0.5;exitDx=0;exitDy=0;entryX=0;entryY=0.5;entryDx=0;entryDy=0;endArrow=none;endFill=0;strokeWidth=2;fontSize=14;fontStyle=0" parent="1" source="Yw1Rvifl_4rnwtDzFo2M-106" target="Yw1Rvifl_4rnwtDzFo2M-111" edge="1">
          <mxGeometry relative="1" as="geometry">
            <mxPoint x="1000" y="1830" as="sourcePoint" />
            <mxPoint x="990" y="1930" as="targetPoint" />
          </mxGeometry>
        </mxCell>
        <mxCell id="Yw1Rvifl_4rnwtDzFo2M-111" value="&lt;span style=&quot;border-bottom: 1px dotted; font-size: 14px;&quot;&gt;MediaURL&lt;/span&gt;" style="ellipse;whiteSpace=wrap;html=1;align=center;fillColor=#d5e8d4;strokeColor=#82b366;strokeWidth=2;fontSize=14;fontStyle=0" parent="1" vertex="1">
          <mxGeometry x="1160" y="1570" width="200" height="100" as="geometry" />
        </mxCell>
        <mxCell id="5MB1CnsHQRnCacVK7Dpy-1" style="rounded=0;orthogonalLoop=1;jettySize=auto;html=1;exitX=0.75;exitY=1;exitDx=0;exitDy=0;strokeWidth=2;endArrow=none;endFill=0;fontSize=14;fontStyle=0;entryX=0.5;entryY=0;entryDx=0;entryDy=0;" parent="1" source="Yw1Rvifl_4rnwtDzFo2M-56" target="5MB1CnsHQRnCacVK7Dpy-2" edge="1">
          <mxGeometry relative="1" as="geometry">
            <mxPoint x="40" y="1121.5" as="sourcePoint" />
            <mxPoint x="58.63082411793221" y="1328.2246651346763" as="targetPoint" />
          </mxGeometry>
        </mxCell>
        <mxCell id="5MB1CnsHQRnCacVK7Dpy-2" value="&lt;font style=&quot;font-size: 14px;&quot;&gt;Cancellation&lt;br style=&quot;font-size: 14px;&quot;&gt;&lt;/font&gt;" style="ellipse;whiteSpace=wrap;html=1;fontSize=14;fontStyle=0;fillColor=#d5e8d4;strokeColor=#82b366;strokeWidth=2;" parent="1" vertex="1">
          <mxGeometry x="110" y="1290" width="120" height="80" as="geometry" />
        </mxCell>
        <mxCell id="5MB1CnsHQRnCacVK7Dpy-4" value="Have&amp;nbsp;" style="shape=rhombus;perimeter=rhombusPerimeter;whiteSpace=wrap;html=1;align=center;fillColor=#fff2cc;strokeColor=#d6b656;strokeWidth=2;fontSize=14;fontStyle=0" parent="1" vertex="1">
          <mxGeometry x="360" y="1082.5" width="120" height="90" as="geometry" />
        </mxCell>
        <mxCell id="5MB1CnsHQRnCacVK7Dpy-5" style="rounded=0;orthogonalLoop=1;jettySize=auto;html=1;entryX=0;entryY=0.5;entryDx=0;entryDy=0;endArrow=ERmandOne;endFill=0;strokeWidth=2;fontSize=14;fontStyle=0" parent="1" source="5MB1CnsHQRnCacVK7Dpy-4" target="Yw1Rvifl_4rnwtDzFo2M-19" edge="1">
          <mxGeometry relative="1" as="geometry" />
        </mxCell>
        <mxCell id="5MB1CnsHQRnCacVK7Dpy-9" style="rounded=0;orthogonalLoop=1;jettySize=auto;html=1;entryX=0;entryY=0.5;entryDx=0;entryDy=0;endArrow=none;endFill=0;exitX=1;exitY=0.5;exitDx=0;exitDy=0;strokeWidth=2;startArrow=ERoneToMany;startFill=0;fontSize=14;fontStyle=0" parent="1" source="Yw1Rvifl_4rnwtDzFo2M-56" target="5MB1CnsHQRnCacVK7Dpy-4" edge="1">
          <mxGeometry relative="1" as="geometry">
            <mxPoint x="50" y="1126.5" as="sourcePoint" />
            <mxPoint x="455" y="1128.5" as="targetPoint" />
          </mxGeometry>
        </mxCell>
        <mxCell id="5MB1CnsHQRnCacVK7Dpy-10" style="rounded=0;orthogonalLoop=1;jettySize=auto;html=1;strokeWidth=2;endArrow=ERmandOne;endFill=0;entryX=0;entryY=1;entryDx=0;entryDy=0;exitX=1;exitY=0;exitDx=0;exitDy=0;fontSize=14;fontStyle=0" parent="1" source="5MB1CnsHQRnCacVK7Dpy-11" target="eR8TVxgXeTOk0L5o_r-3-19" edge="1">
          <mxGeometry relative="1" as="geometry">
            <mxPoint x="-345" y="550" as="sourcePoint" />
            <mxPoint x="-550" y="412.5" as="targetPoint" />
          </mxGeometry>
        </mxCell>
        <mxCell id="5MB1CnsHQRnCacVK7Dpy-11" value="Gives" style="shape=rhombus;perimeter=rhombusPerimeter;whiteSpace=wrap;html=1;align=center;fillColor=#fff2cc;strokeColor=#d6b656;strokeWidth=2;fontSize=14;fontStyle=0" parent="1" vertex="1">
          <mxGeometry x="-330" y="550" width="120" height="90" as="geometry" />
        </mxCell>
        <mxCell id="5MB1CnsHQRnCacVK7Dpy-12" style="rounded=0;orthogonalLoop=1;jettySize=auto;html=1;strokeWidth=2;endArrow=none;endFill=0;entryX=0.5;entryY=1;entryDx=0;entryDy=0;fontSize=14;fontStyle=0;startArrow=ERzeroToMany;startFill=0;" parent="1" source="5MB1CnsHQRnCacVK7Dpy-13" target="5MB1CnsHQRnCacVK7Dpy-11" edge="1">
          <mxGeometry relative="1" as="geometry">
            <mxPoint x="150" y="795" as="sourcePoint" />
            <mxPoint x="150" y="670" as="targetPoint" />
          </mxGeometry>
        </mxCell>
        <mxCell id="5MB1CnsHQRnCacVK7Dpy-14" style="rounded=0;orthogonalLoop=1;jettySize=auto;html=1;strokeWidth=2;endArrow=ERzeroToOne;endFill=0;entryX=0.5;entryY=1;entryDx=0;entryDy=0;exitX=0.5;exitY=0;exitDx=0;exitDy=0;fontSize=14;fontStyle=0" parent="1" source="5MB1CnsHQRnCacVK7Dpy-16" target="5MB1CnsHQRnCacVK7Dpy-13" edge="1">
          <mxGeometry relative="1" as="geometry">
            <mxPoint x="150" y="900" as="sourcePoint" />
            <mxPoint x="149" y="860" as="targetPoint" />
          </mxGeometry>
        </mxCell>
        <mxCell id="5MB1CnsHQRnCacVK7Dpy-13" value="&lt;font style=&quot;font-size: 14px;&quot;&gt;GuestReviews&lt;/font&gt;" style="rounded=0;whiteSpace=wrap;html=1;fillColor=#dae8fc;strokeColor=#6c8ebf;strokeWidth=2;fontSize=14;fontStyle=0" parent="1" vertex="1">
          <mxGeometry x="-330" y="740" width="120" height="60" as="geometry" />
        </mxCell>
        <mxCell id="5MB1CnsHQRnCacVK7Dpy-16" value="For" style="shape=rhombus;perimeter=rhombusPerimeter;whiteSpace=wrap;html=1;align=center;fillColor=#fff2cc;strokeColor=#d6b656;strokeWidth=2;fontSize=14;fontStyle=0" parent="1" vertex="1">
          <mxGeometry x="-330" y="890" width="120" height="90" as="geometry" />
        </mxCell>
        <mxCell id="5MB1CnsHQRnCacVK7Dpy-17" style="rounded=0;orthogonalLoop=1;jettySize=auto;html=1;strokeWidth=2;endArrow=none;endFill=0;entryX=1;entryY=1;entryDx=0;entryDy=0;exitX=0;exitY=0;exitDx=0;exitDy=0;fontSize=14;fontStyle=0;startArrow=ERmandOne;startFill=0;" parent="1" source="Yw1Rvifl_4rnwtDzFo2M-56" target="5MB1CnsHQRnCacVK7Dpy-16" edge="1">
          <mxGeometry relative="1" as="geometry">
            <mxPoint x="38" y="1100" as="sourcePoint" />
            <mxPoint x="38" y="1010" as="targetPoint" />
          </mxGeometry>
        </mxCell>
        <mxCell id="5MB1CnsHQRnCacVK7Dpy-20" value="Gives" style="shape=rhombus;perimeter=rhombusPerimeter;whiteSpace=wrap;html=1;align=center;fillColor=#fff2cc;strokeColor=#d6b656;strokeWidth=2;fontSize=14;fontStyle=0" parent="1" vertex="1">
          <mxGeometry x="630" y="560" width="120" height="90" as="geometry" />
        </mxCell>
        <mxCell id="5MB1CnsHQRnCacVK7Dpy-21" style="rounded=0;orthogonalLoop=1;jettySize=auto;html=1;strokeWidth=2;endArrow=none;endFill=0;entryX=0.336;entryY=0.811;entryDx=0;entryDy=0;exitX=1;exitY=0;exitDx=0;exitDy=0;fontSize=14;fontStyle=0;startArrow=ERzeroToMany;startFill=0;entryPerimeter=0;" parent="1" source="5MB1CnsHQRnCacVK7Dpy-23" target="5MB1CnsHQRnCacVK7Dpy-20" edge="1">
          <mxGeometry relative="1" as="geometry">
            <mxPoint x="1090" y="765" as="sourcePoint" />
            <mxPoint x="1090" y="640" as="targetPoint" />
          </mxGeometry>
        </mxCell>
        <mxCell id="5MB1CnsHQRnCacVK7Dpy-22" style="rounded=0;orthogonalLoop=1;jettySize=auto;html=1;strokeWidth=2;endArrow=ERzeroToOne;endFill=0;entryX=0;entryY=1;entryDx=0;entryDy=0;exitX=1;exitY=0;exitDx=0;exitDy=0;fontSize=14;fontStyle=0;" parent="1" source="5MB1CnsHQRnCacVK7Dpy-24" target="5MB1CnsHQRnCacVK7Dpy-23" edge="1">
          <mxGeometry relative="1" as="geometry">
            <mxPoint x="1090" y="870" as="sourcePoint" />
            <mxPoint x="1089" y="830" as="targetPoint" />
          </mxGeometry>
        </mxCell>
        <mxCell id="5MB1CnsHQRnCacVK7Dpy-23" value="&lt;font style=&quot;font-size: 14px;&quot;&gt;HostReviews&lt;/font&gt;" style="rounded=0;whiteSpace=wrap;html=1;fillColor=#dae8fc;strokeColor=#6c8ebf;strokeWidth=2;fontSize=14;fontStyle=0" parent="1" vertex="1">
          <mxGeometry x="425" y="740" width="120" height="60" as="geometry" />
        </mxCell>
        <mxCell id="5MB1CnsHQRnCacVK7Dpy-24" value="For" style="shape=rhombus;perimeter=rhombusPerimeter;whiteSpace=wrap;html=1;align=center;fillColor=#fff2cc;strokeColor=#d6b656;strokeWidth=2;fontSize=14;fontStyle=0" parent="1" vertex="1">
          <mxGeometry x="170" y="910" width="120" height="90" as="geometry" />
        </mxCell>
        <mxCell id="5MB1CnsHQRnCacVK7Dpy-25" style="rounded=0;orthogonalLoop=1;jettySize=auto;html=1;strokeWidth=2;endArrow=ERmandOne;endFill=0;entryX=0;entryY=1;entryDx=0;entryDy=0;exitX=1;exitY=0;exitDx=0;exitDy=0;fontSize=14;fontStyle=0;startArrow=none;startFill=0;" parent="1" source="5MB1CnsHQRnCacVK7Dpy-20" target="eR8TVxgXeTOk0L5o_r-3-36" edge="1">
          <mxGeometry relative="1" as="geometry">
            <mxPoint x="740" y="550" as="sourcePoint" />
            <mxPoint x="874" y="438" as="targetPoint" />
          </mxGeometry>
        </mxCell>
        <mxCell id="5MB1CnsHQRnCacVK7Dpy-26" style="rounded=0;orthogonalLoop=1;jettySize=auto;html=1;strokeWidth=2;endArrow=none;endFill=0;entryX=0;entryY=1;entryDx=0;entryDy=0;exitX=1;exitY=0;exitDx=0;exitDy=0;fontSize=14;fontStyle=0;startArrow=ERmandOne;startFill=0;" parent="1" target="5MB1CnsHQRnCacVK7Dpy-24" edge="1">
          <mxGeometry relative="1" as="geometry">
            <mxPoint x="40" y="1100" as="sourcePoint" />
            <mxPoint x="245" y="930" as="targetPoint" />
          </mxGeometry>
        </mxCell>
        <mxCell id="gzL9DuzZB-tZ408s4mVE-1" value="&lt;font style=&quot;font-size: 14px;&quot;&gt;Price&lt;/font&gt;" style="ellipse;whiteSpace=wrap;html=1;fontSize=14;fontStyle=0;fillColor=#d5e8d4;strokeColor=#82b366;strokeWidth=2;" parent="1" vertex="1">
          <mxGeometry x="-850" y="1240" width="120" height="80" as="geometry" />
        </mxCell>
        <mxCell id="gzL9DuzZB-tZ408s4mVE-2" style="rounded=0;orthogonalLoop=1;jettySize=auto;html=1;exitX=0;exitY=0.5;exitDx=0;exitDy=0;strokeWidth=2;endArrow=ERzeroToMany;endFill=0;fontSize=14;fontStyle=0;" parent="1" source="gzL9DuzZB-tZ408s4mVE-4" edge="1">
          <mxGeometry relative="1" as="geometry">
            <mxPoint x="-370" y="1078" as="sourcePoint" />
            <mxPoint x="-530" y="1130" as="targetPoint" />
          </mxGeometry>
        </mxCell>
        <mxCell id="gzL9DuzZB-tZ408s4mVE-3" style="rounded=0;orthogonalLoop=1;jettySize=auto;html=1;exitX=0;exitY=1;exitDx=0;exitDy=0;strokeWidth=2;endArrow=none;endFill=0;fontSize=14;fontStyle=0;entryX=0.703;entryY=0.029;entryDx=0;entryDy=0;entryPerimeter=0;" parent="1" source="Yw1Rvifl_4rnwtDzFo2M-84" target="gzL9DuzZB-tZ408s4mVE-1" edge="1">
          <mxGeometry relative="1" as="geometry">
            <mxPoint x="-580" y="1163" as="sourcePoint" />
            <mxPoint x="-580" y="1230" as="targetPoint" />
          </mxGeometry>
        </mxCell>
        <mxCell id="gzL9DuzZB-tZ408s4mVE-5" value="" style="rounded=0;orthogonalLoop=1;jettySize=auto;html=1;exitX=0;exitY=0.5;exitDx=0;exitDy=0;strokeWidth=2;endArrow=none;endFill=0;fontSize=14;fontStyle=0;startArrow=ERmandOne;startFill=0;" parent="1" source="Yw1Rvifl_4rnwtDzFo2M-56" target="gzL9DuzZB-tZ408s4mVE-4" edge="1">
          <mxGeometry relative="1" as="geometry">
            <mxPoint x="-80" y="1130" as="sourcePoint" />
            <mxPoint x="-530" y="1130" as="targetPoint" />
          </mxGeometry>
        </mxCell>
        <mxCell id="gzL9DuzZB-tZ408s4mVE-4" value="Has" style="shape=rhombus;perimeter=rhombusPerimeter;whiteSpace=wrap;html=1;align=center;fillColor=#fff2cc;strokeColor=#d6b656;strokeWidth=2;fontSize=14;fontStyle=0" parent="1" vertex="1">
          <mxGeometry x="-370" y="1085" width="120" height="90" as="geometry" />
        </mxCell>
        <mxCell id="gzL9DuzZB-tZ408s4mVE-6" value="" style="endArrow=none;html=1;rounded=0;exitX=0.5;exitY=0;exitDx=0;exitDy=0;strokeWidth=2;fontSize=14;fontStyle=0" parent="1" edge="1">
          <mxGeometry width="50" height="50" relative="1" as="geometry">
            <mxPoint x="425" y="210" as="sourcePoint" />
            <mxPoint x="425" y="290" as="targetPoint" />
          </mxGeometry>
        </mxCell>
        <mxCell id="v02Pq3sf-YM5VcebUAxX-1" style="rounded=0;orthogonalLoop=1;jettySize=auto;html=1;strokeWidth=2;endArrow=none;endFill=0;fontSize=14;fontStyle=0;exitX=0;exitY=0;exitDx=0;exitDy=0;entryX=1;entryY=0.5;entryDx=0;entryDy=0;" parent="1" source="5MB1CnsHQRnCacVK7Dpy-13" target="v02Pq3sf-YM5VcebUAxX-2" edge="1">
          <mxGeometry relative="1" as="geometry">
            <mxPoint x="-330" y="766" as="sourcePoint" />
          </mxGeometry>
        </mxCell>
        <mxCell id="v02Pq3sf-YM5VcebUAxX-2" value="&lt;font style=&quot;font-size: 14px;&quot;&gt;GuestRating&lt;/font&gt;" style="ellipse;whiteSpace=wrap;html=1;fontSize=14;fontStyle=0;fillColor=#d5e8d4;strokeColor=#82b366;strokeWidth=2;" parent="1" vertex="1">
          <mxGeometry x="-480" y="650" width="120" height="80" as="geometry" />
        </mxCell>
        <mxCell id="v02Pq3sf-YM5VcebUAxX-3" style="rounded=0;orthogonalLoop=1;jettySize=auto;html=1;strokeWidth=2;endArrow=none;endFill=0;fontSize=14;fontStyle=0;exitX=0.5;exitY=1;exitDx=0;exitDy=0;" parent="1" source="5MB1CnsHQRnCacVK7Dpy-23" target="v02Pq3sf-YM5VcebUAxX-4" edge="1">
          <mxGeometry relative="1" as="geometry">
            <mxPoint x="675" y="910.5" as="sourcePoint" />
          </mxGeometry>
        </mxCell>
        <mxCell id="v02Pq3sf-YM5VcebUAxX-4" value="&lt;font style=&quot;font-size: 14px;&quot;&gt;HostReviewID&lt;/font&gt;" style="ellipse;whiteSpace=wrap;html=1;fontSize=14;fontStyle=4;fillColor=#d5e8d4;strokeColor=#82b366;strokeWidth=2;" parent="1" vertex="1">
          <mxGeometry x="425" y="870" width="120" height="80" as="geometry" />
        </mxCell>
        <mxCell id="v02Pq3sf-YM5VcebUAxX-6" style="rounded=0;orthogonalLoop=1;jettySize=auto;html=1;strokeWidth=2;endArrow=none;endFill=0;fontSize=14;fontStyle=0;exitX=0;exitY=1;exitDx=0;exitDy=0;entryX=1;entryY=0.5;entryDx=0;entryDy=0;" parent="1" source="5MB1CnsHQRnCacVK7Dpy-13" target="v02Pq3sf-YM5VcebUAxX-7" edge="1">
          <mxGeometry relative="1" as="geometry">
            <mxPoint x="-320" y="831" as="sourcePoint" />
          </mxGeometry>
        </mxCell>
        <mxCell id="v02Pq3sf-YM5VcebUAxX-7" value="&lt;font style=&quot;font-size: 14px;&quot;&gt;GuestReviewID&lt;/font&gt;" style="ellipse;whiteSpace=wrap;html=1;fontSize=14;fontStyle=4;fillColor=#d5e8d4;strokeColor=#82b366;strokeWidth=2;" parent="1" vertex="1">
          <mxGeometry x="-480" y="800" width="120" height="80" as="geometry" />
        </mxCell>
        <mxCell id="v02Pq3sf-YM5VcebUAxX-8" style="rounded=0;orthogonalLoop=1;jettySize=auto;html=1;strokeWidth=2;endArrow=none;endFill=0;fontSize=14;fontStyle=0;exitX=0.5;exitY=0;exitDx=0;exitDy=0;" parent="1" source="5MB1CnsHQRnCacVK7Dpy-23" target="v02Pq3sf-YM5VcebUAxX-9" edge="1">
          <mxGeometry relative="1" as="geometry">
            <mxPoint x="485" y="490" as="sourcePoint" />
          </mxGeometry>
        </mxCell>
        <mxCell id="v02Pq3sf-YM5VcebUAxX-9" value="&lt;font style=&quot;font-size: 14px;&quot;&gt;HostRating&lt;/font&gt;" style="ellipse;whiteSpace=wrap;html=1;fontSize=14;fontStyle=0;fillColor=#d5e8d4;strokeColor=#82b366;strokeWidth=2;" parent="1" vertex="1">
          <mxGeometry x="425" y="570" width="120" height="80" as="geometry" />
        </mxCell>
      </root>
    </mxGraphModel>
  </diagram>
</mxfile>
